<?xml version="1.0" encoding="UTF-8"?>
<svg xmlns="http://www.w3.org/2000/svg" width="512" height="512" viewBox="0 0 512 512">
  <defs>
    <linearGradient id="sky" x1="0" y1="0" x2="1" y2="1"><stop stop-color="#171a42"/><stop offset="1" stop-color="#090b1a"/></linearGradient>
    <linearGradient id="moon" x1="0" y1="0" x2="1" y2="1"><stop stop-color="#d4c2ff"/><stop offset="1" stop-color="#5be5ff"/></linearGradient>
    <filter id="glow"><feGaussianBlur stdDeviation="9" result="b"/><feMerge><feMergeNode in="b"/><feMergeNode in="SourceGraphic"/></feMerge></filter>
  </defs>
  <rect width="512" height="512" rx="0" fill="url(#sky)"/>
  <circle cx="380" cy="126" r="74" fill="url(#moon)" filter="url(#glow)"/>
  <path d="M77 404V211l179-92 179 92v193H77Z" fill="#2b305d" stroke="#9b8ae8" stroke-width="16" stroke-linejoin="round"/>
  <path d="M214 404V276h84v128" fill="#10132d" stroke="#5be5ff" stroke-width="12"/>
  <path d="M130 243h58v66h-58zm194 0h58v66h-58z" fill="#ffd36f" stroke="#14172f" stroke-width="10"/>
  <path d="M186 174c22-45 104-45 126 0-12 20-31 31-63 31s-51-11-63-31Z" fill="#7765b5"/>
  <ellipse cx="225" cy="174" rx="9" ry="13" fill="#ff668c"/><ellipse cx="278" cy="174" rx="9" ry="13" fill="#ff668c"/>
</svg>